<?xml version="1.0" encoding="UTF-8"?>
<svg xmlns="http://www.w3.org/2000/svg" xmlns:xlink="http://www.w3.org/1999/xlink" width="30px" height="30px" viewBox="0 0 30 30" version="1.1">
<g id="surface1">
<path style=" stroke:none;fill-rule:nonzero;fill:rgb(0%,0%,0%);fill-opacity:1;" d="M 14.402344 0.015625 C 13.894531 0.0429688 13.484375 0.078125 13.160156 0.121094 C 10.828125 0.40625 8.644531 1.214844 6.691406 2.515625 C 4.566406 3.929688 2.828125 5.875 1.660156 8.144531 C 0.734375 9.945312 0.21875 11.773438 0.0429688 13.886719 C 0.00390625 14.339844 0.00390625 15.660156 0.0429688 16.113281 C 0.21875 18.226562 0.734375 20.054688 1.660156 21.855469 C 3.089844 24.636719 5.363281 26.910156 8.144531 28.339844 C 9.945312 29.265625 11.773438 29.78125 13.886719 29.957031 C 14.339844 29.996094 15.660156 29.996094 16.113281 29.957031 C 18.226562 29.78125 20.054688 29.265625 21.855469 28.339844 C 24.636719 26.910156 26.910156 24.636719 28.339844 21.855469 C 29.265625 20.054688 29.78125 18.226562 29.957031 16.113281 C 29.996094 15.660156 29.996094 14.339844 29.957031 13.886719 C 29.78125 11.773438 29.265625 9.945312 28.339844 8.144531 C 26.910156 5.363281 24.636719 3.089844 21.855469 1.660156 C 20.089844 0.753906 18.265625 0.230469 16.253906 0.0585938 C 15.871094 0.0234375 14.691406 -0.00390625 14.402344 0.015625 Z M 16.132812 1.839844 C 19.203125 2.101562 22.039062 3.414062 24.253906 5.585938 C 26.550781 7.84375 27.910156 10.765625 28.175781 14.003906 C 28.210938 14.457031 28.210938 15.542969 28.175781 15.996094 C 27.917969 19.160156 26.617188 22.011719 24.414062 24.253906 C 22.152344 26.550781 19.242188 27.90625 15.996094 28.175781 C 15.542969 28.210938 14.457031 28.210938 14.003906 28.175781 C 10.753906 27.90625 7.84375 26.550781 5.585938 24.253906 C 3.378906 22.003906 2.089844 19.175781 1.824219 15.996094 C 1.789062 15.542969 1.789062 14.457031 1.824219 14.003906 C 2.09375 10.75 3.449219 7.84375 5.746094 5.585938 C 7.800781 3.566406 10.402344 2.289062 13.21875 1.914062 C 14.195312 1.785156 15.167969 1.757812 16.132812 1.839844 Z M 16.132812 1.839844 "/>
<path style=" stroke:none;fill-rule:nonzero;fill:rgb(0%,0%,0%);fill-opacity:1;" d="M 11.859375 4.832031 C 11.734375 4.867188 10.269531 5.722656 10.179688 5.808594 C 9.988281 6.007812 9.941406 6.296875 10.0625 6.535156 C 10.191406 6.78125 12.757812 11.21875 12.816406 11.296875 C 12.953125 11.46875 13.253906 11.570312 13.464844 11.511719 C 13.574219 11.480469 15.015625 10.65625 15.140625 10.550781 C 15.300781 10.417969 15.386719 10.132812 15.332031 9.925781 C 15.316406 9.875 14.6875 8.761719 13.933594 7.453125 C 12.824219 5.527344 12.542969 5.054688 12.453125 4.976562 C 12.296875 4.824219 12.070312 4.773438 11.859375 4.832031 Z M 11.859375 4.832031 "/>
<path style=" stroke:none;fill-rule:nonzero;fill:rgb(0%,0%,0%);fill-opacity:1;" d="M 9.238281 6.875 C 8.738281 7.179688 8.488281 7.363281 8.21875 7.617188 C 7.4375 8.363281 7.226562 9.109375 7.363281 10.652344 C 7.554688 12.859375 8.648438 15.8125 10.289062 18.539062 C 11.828125 21.097656 13.679688 23.21875 15.386719 24.378906 C 16.265625 24.976562 16.8125 25.183594 17.519531 25.183594 C 17.992188 25.183594 18.386719 25.089844 18.941406 24.84375 C 19.199219 24.726562 19.796875 24.410156 19.816406 24.378906 C 19.824219 24.363281 17.152344 19.707031 17.007812 19.484375 C 16.996094 19.460938 16.96875 19.464844 16.898438 19.5 C 16.738281 19.582031 16.46875 19.660156 16.261719 19.6875 C 15.496094 19.78125 14.585938 19.339844 13.746094 18.464844 C 12.707031 17.382812 11.878906 15.785156 11.625 14.355469 C 11.433594 13.304688 11.578125 12.460938 12.035156 11.921875 C 12.113281 11.832031 12.371094 11.613281 12.425781 11.597656 C 12.441406 11.589844 11.914062 10.65625 11.042969 9.136719 C 10.261719 7.792969 9.621094 6.683594 9.613281 6.675781 C 9.601562 6.664062 9.4375 6.753906 9.238281 6.875 Z M 9.238281 6.875 "/>
<path style=" stroke:none;fill-rule:nonzero;fill:rgb(0%,0%,0%);fill-opacity:1;" d="M 19.265625 17.507812 C 19.136719 17.523438 19.15625 17.515625 18.296875 18.007812 C 17.914062 18.230469 17.5625 18.445312 17.515625 18.488281 C 17.347656 18.648438 17.277344 18.921875 17.347656 19.128906 C 17.386719 19.246094 20.054688 23.875 20.152344 23.996094 C 20.320312 24.207031 20.652344 24.273438 20.917969 24.144531 C 21.121094 24.046875 22.355469 23.328125 22.453125 23.253906 C 22.585938 23.148438 22.664062 22.972656 22.664062 22.777344 C 22.664062 22.691406 22.652344 22.589844 22.636719 22.554688 C 22.554688 22.367188 19.882812 17.765625 19.808594 17.691406 C 19.667969 17.539062 19.480469 17.476562 19.265625 17.507812 Z M 19.265625 17.507812 "/>
</g>
</svg>
