<?xml version="1.0" encoding="UTF-8"?>
<svg xmlns="http://www.w3.org/2000/svg" xmlns:xlink="http://www.w3.org/1999/xlink" width="30px" height="30px" viewBox="0 0 30 30" version="1.1">
<defs>
<radialGradient id="radial0" gradientUnits="userSpaceOnUse" cx="673.845" cy="1118.777" fx="673.845" fy="1118.777" r="646.025" gradientTransform="matrix(0.0967896,-0.0162509,0.00988237,0.0587477,-71.497624,-22.619666)">
<stop offset="0" style="stop-color:rgb(99.607843%,83.529412%,46.27451%);stop-opacity:1;"/>
<stop offset="0.263" style="stop-color:rgb(95.686275%,44.313725%,20%);stop-opacity:1;"/>
<stop offset="0.609" style="stop-color:rgb(73.72549%,18.823529%,50.588235%);stop-opacity:1;"/>
<stop offset="1" style="stop-color:rgb(29.803922%,38.823529%,82.352941%);stop-opacity:1;"/>
</radialGradient>
<radialGradient id="radial1" gradientUnits="userSpaceOnUse" cx="673.845" cy="1118.777" fx="673.845" fy="1118.777" r="646.025" gradientTransform="matrix(0.0967896,-0.0162509,0.00988237,0.0587477,-71.497624,-22.619666)">
<stop offset="0" style="stop-color:rgb(99.607843%,83.529412%,46.27451%);stop-opacity:1;"/>
<stop offset="0.263" style="stop-color:rgb(95.686275%,44.313725%,20%);stop-opacity:1;"/>
<stop offset="0.609" style="stop-color:rgb(73.72549%,18.823529%,50.588235%);stop-opacity:1;"/>
<stop offset="1" style="stop-color:rgb(29.803922%,38.823529%,82.352941%);stop-opacity:1;"/>
</radialGradient>
<radialGradient id="radial2" gradientUnits="userSpaceOnUse" cx="673.845" cy="1118.777" fx="673.845" fy="1118.777" r="646.025" gradientTransform="matrix(0.0967896,-0.0162509,0.00988237,0.0587477,-71.497624,-22.619666)">
<stop offset="0" style="stop-color:rgb(99.607843%,83.529412%,46.27451%);stop-opacity:1;"/>
<stop offset="0.263" style="stop-color:rgb(95.686275%,44.313725%,20%);stop-opacity:1;"/>
<stop offset="0.609" style="stop-color:rgb(73.72549%,18.823529%,50.588235%);stop-opacity:1;"/>
<stop offset="1" style="stop-color:rgb(29.803922%,38.823529%,82.352941%);stop-opacity:1;"/>
</radialGradient>
</defs>
<g id="surface1">
<path style=" stroke:none;fill-rule:nonzero;fill:url(#radial0);" d="M 15.011719 7.355469 C 14.75 7.355469 14.488281 7.371094 14.230469 7.398438 C 13.972656 7.421875 13.722656 7.460938 13.472656 7.511719 C 13.222656 7.566406 12.976562 7.628906 12.738281 7.703125 L 12.035156 7.960938 L 11.363281 8.285156 L 10.730469 8.671875 L 10.140625 9.113281 L 9.59375 9.609375 L 9.097656 10.152344 L 8.65625 10.742188 L 8.269531 11.375 L 7.945312 12.042969 C 7.847656 12.273438 7.761719 12.507812 7.6875 12.746094 C 7.613281 12.988281 7.550781 13.230469 7.496094 13.480469 C 7.445312 13.730469 7.40625 13.984375 7.382812 14.242188 C 7.355469 14.496094 7.339844 14.757812 7.339844 15.019531 C 7.339844 15.285156 7.355469 15.546875 7.382812 15.800781 C 7.40625 16.058594 7.445312 16.3125 7.496094 16.5625 C 7.550781 16.8125 7.613281 17.054688 7.6875 17.292969 C 7.761719 17.535156 7.847656 17.769531 7.945312 18 L 8.269531 18.667969 L 8.65625 19.300781 L 9.097656 19.890625 L 9.59375 20.433594 L 10.140625 20.929688 L 10.730469 21.371094 L 11.363281 21.757812 L 12.035156 22.082031 L 12.738281 22.339844 L 13.472656 22.53125 C 13.722656 22.582031 13.976562 22.621094 14.230469 22.644531 C 14.492188 22.671875 14.753906 22.6875 15.011719 22.6875 C 15.277344 22.6875 15.539062 22.671875 15.796875 22.644531 C 16.050781 22.621094 16.304688 22.582031 16.554688 22.53125 L 17.289062 22.339844 L 17.992188 22.082031 L 18.664062 21.757812 L 19.296875 21.371094 L 19.886719 20.929688 L 20.433594 20.433594 L 20.929688 19.890625 L 21.371094 19.300781 L 21.757812 18.667969 L 22.082031 18 L 22.339844 17.292969 C 22.414062 17.054688 22.476562 16.808594 22.527344 16.5625 L 22.644531 15.800781 C 22.671875 15.546875 22.683594 15.285156 22.683594 15.019531 C 22.683594 14.757812 22.671875 14.496094 22.644531 14.238281 C 22.621094 13.984375 22.582031 13.730469 22.527344 13.480469 C 22.476562 13.230469 22.414062 12.988281 22.339844 12.746094 L 22.082031 12.042969 L 21.757812 11.375 L 21.371094 10.742188 L 20.929688 10.152344 L 20.433594 9.605469 L 19.886719 9.113281 L 19.296875 8.667969 L 18.664062 8.285156 L 17.992188 7.960938 L 17.289062 7.703125 L 16.554688 7.511719 L 15.796875 7.398438 C 15.535156 7.371094 15.273438 7.355469 15.011719 7.355469 Z M 15.011719 10.003906 C 15.1875 10.003906 15.359375 10.011719 15.53125 10.027344 L 16.027344 10.105469 L 16.511719 10.226562 L 16.972656 10.394531 L 17.414062 10.605469 L 17.828125 10.855469 L 18.214844 11.144531 L 18.570312 11.464844 L 18.894531 11.824219 L 19.179688 12.207031 L 19.433594 12.621094 L 19.640625 13.0625 C 19.707031 13.210938 19.761719 13.367188 19.808594 13.523438 C 19.859375 13.679688 19.898438 13.84375 19.933594 14.007812 C 19.964844 14.167969 19.992188 14.335938 20.007812 14.507812 L 20.035156 15.023438 C 20.035156 15.195312 20.027344 15.367188 20.007812 15.539062 C 19.992188 15.707031 19.96875 15.875 19.933594 16.039062 C 19.898438 16.203125 19.859375 16.363281 19.808594 16.519531 L 19.640625 16.980469 L 19.433594 17.421875 L 19.179688 17.835938 L 18.894531 18.222656 L 18.570312 18.578125 L 18.214844 18.898438 L 17.828125 19.1875 L 17.414062 19.4375 L 16.972656 19.648438 L 16.511719 19.816406 L 16.027344 19.941406 L 15.53125 20.015625 C 15.359375 20.03125 15.1875 20.042969 15.011719 20.042969 C 14.839844 20.042969 14.667969 20.03125 14.496094 20.015625 L 13.996094 19.941406 C 13.832031 19.90625 13.671875 19.867188 13.515625 19.816406 L 13.050781 19.648438 L 12.613281 19.4375 L 12.199219 19.1875 L 11.8125 18.898438 L 11.457031 18.578125 L 11.132812 18.222656 L 10.84375 17.835938 L 10.59375 17.421875 L 10.382812 16.980469 L 10.214844 16.519531 L 10.09375 16.039062 L 10.015625 15.539062 C 10 15.367188 9.992188 15.195312 9.992188 15.023438 C 9.992188 14.851562 10 14.675781 10.015625 14.507812 C 10.035156 14.335938 10.058594 14.167969 10.09375 14.007812 C 10.125 13.84375 10.167969 13.683594 10.214844 13.523438 L 10.382812 13.0625 L 10.59375 12.621094 L 10.84375 12.207031 L 11.132812 11.824219 L 11.457031 11.464844 L 11.8125 11.144531 L 12.199219 10.855469 L 12.613281 10.605469 L 13.050781 10.394531 C 13.203125 10.332031 13.359375 10.273438 13.515625 10.226562 L 13.996094 10.105469 C 14.160156 10.070312 14.328125 10.046875 14.496094 10.027344 C 14.667969 10.011719 14.839844 10.003906 15.011719 10.003906 Z M 15.011719 10.003906 "/>
<path style=" stroke:none;fill-rule:nonzero;fill:url(#radial1);" d="M 22.996094 5.175781 C 22.933594 5.175781 22.875 5.179688 22.8125 5.1875 C 22.753906 5.191406 22.691406 5.199219 22.632812 5.214844 C 22.574219 5.226562 22.515625 5.242188 22.457031 5.257812 C 22.398438 5.277344 22.339844 5.296875 22.285156 5.320312 C 22.230469 5.347656 22.175781 5.371094 22.121094 5.402344 C 22.066406 5.429688 22.015625 5.464844 21.964844 5.496094 C 21.914062 5.53125 21.867188 5.570312 21.820312 5.609375 C 21.773438 5.648438 21.726562 5.691406 21.6875 5.734375 C 21.644531 5.777344 21.601562 5.824219 21.566406 5.871094 C 21.527344 5.921875 21.492188 5.96875 21.460938 6.023438 C 21.425781 6.074219 21.394531 6.125 21.367188 6.179688 C 21.339844 6.234375 21.316406 6.292969 21.292969 6.347656 C 21.273438 6.40625 21.253906 6.464844 21.234375 6.523438 C 21.21875 6.582031 21.207031 6.644531 21.195312 6.703125 C 21.1875 6.761719 21.179688 6.824219 21.175781 6.886719 C 21.171875 6.929688 21.167969 6.972656 21.167969 7.015625 C 21.167969 7.078125 21.171875 7.136719 21.179688 7.199219 C 21.183594 7.261719 21.195312 7.320312 21.207031 7.382812 C 21.21875 7.441406 21.234375 7.5 21.25 7.558594 C 21.269531 7.617188 21.289062 7.675781 21.3125 7.730469 C 21.335938 7.789062 21.363281 7.84375 21.394531 7.898438 C 21.421875 7.949219 21.453125 8.003906 21.488281 8.054688 C 21.523438 8.105469 21.558594 8.152344 21.597656 8.199219 C 21.636719 8.246094 21.679688 8.292969 21.722656 8.335938 C 21.765625 8.378906 21.8125 8.417969 21.859375 8.457031 C 21.910156 8.496094 21.957031 8.53125 22.007812 8.5625 C 22.0625 8.597656 22.113281 8.625 22.167969 8.65625 C 22.222656 8.683594 22.277344 8.707031 22.335938 8.730469 C 22.390625 8.753906 22.449219 8.769531 22.507812 8.789062 C 22.566406 8.804688 22.625 8.816406 22.6875 8.828125 C 22.746094 8.839844 22.804688 8.847656 22.867188 8.851562 C 22.910156 8.851562 22.953125 8.855469 22.996094 8.855469 C 23.058594 8.855469 23.117188 8.851562 23.179688 8.84375 C 23.238281 8.839844 23.300781 8.832031 23.359375 8.816406 C 23.417969 8.804688 23.476562 8.789062 23.535156 8.773438 C 23.59375 8.753906 23.652344 8.734375 23.707031 8.710938 C 23.765625 8.6875 23.820312 8.660156 23.871094 8.628906 C 23.925781 8.601562 23.976562 8.566406 24.027344 8.535156 C 24.078125 8.5 24.125 8.460938 24.171875 8.421875 C 24.21875 8.382812 24.265625 8.339844 24.308594 8.296875 C 24.347656 8.253906 24.390625 8.207031 24.425781 8.160156 C 24.464844 8.109375 24.5 8.0625 24.535156 8.007812 C 24.566406 7.957031 24.597656 7.90625 24.625 7.851562 C 24.652344 7.796875 24.675781 7.738281 24.699219 7.683594 C 24.722656 7.625 24.742188 7.566406 24.757812 7.507812 C 24.773438 7.449219 24.785156 7.390625 24.796875 7.328125 C 24.808594 7.269531 24.816406 7.207031 24.820312 7.144531 C 24.820312 7.101562 24.824219 7.058594 24.824219 7.015625 C 24.824219 6.953125 24.820312 6.894531 24.8125 6.832031 C 24.808594 6.769531 24.800781 6.710938 24.785156 6.652344 C 24.773438 6.589844 24.761719 6.53125 24.742188 6.472656 C 24.722656 6.414062 24.703125 6.355469 24.679688 6.300781 C 24.65625 6.242188 24.628906 6.1875 24.601562 6.132812 C 24.570312 6.082031 24.539062 6.027344 24.503906 5.976562 C 24.46875 5.925781 24.433594 5.878906 24.394531 5.832031 C 24.355469 5.785156 24.3125 5.738281 24.269531 5.695312 C 24.226562 5.652344 24.179688 5.613281 24.132812 5.574219 C 24.085938 5.535156 24.035156 5.5 23.984375 5.46875 C 23.933594 5.433594 23.878906 5.40625 23.824219 5.375 C 23.769531 5.347656 23.714844 5.324219 23.660156 5.300781 C 23.601562 5.28125 23.542969 5.261719 23.484375 5.242188 C 23.425781 5.226562 23.367188 5.214844 23.308594 5.203125 C 23.246094 5.191406 23.1875 5.1875 23.125 5.179688 C 23.082031 5.179688 23.039062 5.175781 22.996094 5.175781 Z M 22.996094 5.175781 "/>
<path style=" stroke:none;fill-rule:nonzero;fill:url(#radial2);" d="M 13.558594 0.0273438 C 12.722656 0.0273438 11.980469 0.0273438 11.308594 0.0390625 L 9.515625 0.0859375 C 8.984375 0.109375 8.515625 0.140625 8.09375 0.179688 C 7.882812 0.199219 7.6875 0.21875 7.496094 0.242188 C 7.316406 0.265625 7.140625 0.292969 6.960938 0.324219 C 6.792969 0.351562 6.628906 0.382812 6.476562 0.417969 C 6.320312 0.449219 6.175781 0.488281 6.03125 0.527344 C 5.894531 0.566406 5.753906 0.605469 5.617188 0.652344 C 5.484375 0.699219 5.355469 0.746094 5.222656 0.796875 C 4.964844 0.898438 4.714844 1.015625 4.457031 1.140625 C 4.253906 1.242188 4.070312 1.339844 3.894531 1.449219 C 3.722656 1.554688 3.554688 1.664062 3.394531 1.789062 C 3.226562 1.914062 3.0625 2.046875 2.910156 2.191406 C 2.75 2.335938 2.582031 2.5 2.410156 2.679688 C 2.195312 2.90625 2.007812 3.117188 1.84375 3.324219 C 1.757812 3.425781 1.679688 3.53125 1.609375 3.632812 C 1.535156 3.734375 1.464844 3.835938 1.398438 3.941406 C 1.335938 4.046875 1.273438 4.15625 1.214844 4.265625 C 1.152344 4.375 1.097656 4.488281 1.042969 4.605469 C 0.933594 4.839844 0.832031 5.09375 0.730469 5.375 C 0.65625 5.582031 0.585938 5.792969 0.527344 6.007812 C 0.464844 6.226562 0.414062 6.457031 0.363281 6.703125 C 0.316406 6.949219 0.273438 7.214844 0.238281 7.511719 C 0.195312 7.832031 0.164062 8.15625 0.140625 8.480469 C 0.113281 8.835938 0.0898438 9.226562 0.0742188 9.664062 L 0.03125 11.113281 L 0.0078125 12.882812 L 0 15.019531 L 0.0195312 18.128906 L 0.0820312 20.484375 L 0.128906 21.402344 L 0.1875 22.164062 C 0.207031 22.371094 0.230469 22.574219 0.257812 22.777344 C 0.285156 22.960938 0.3125 23.121094 0.34375 23.257812 C 0.402344 23.535156 0.476562 23.8125 0.558594 24.085938 C 0.636719 24.347656 0.730469 24.605469 0.832031 24.863281 C 0.929688 25.109375 1.039062 25.351562 1.160156 25.582031 C 1.277344 25.8125 1.40625 26.035156 1.546875 26.246094 C 1.683594 26.460938 1.832031 26.664062 1.992188 26.863281 C 2.148438 27.058594 2.316406 27.246094 2.492188 27.421875 C 2.671875 27.601562 2.859375 27.773438 3.054688 27.933594 C 3.253906 28.097656 3.460938 28.25 3.675781 28.394531 C 3.875 28.527344 4.074219 28.648438 4.273438 28.761719 C 4.46875 28.875 4.671875 28.976562 4.875 29.066406 C 5.082031 29.160156 5.292969 29.242188 5.515625 29.316406 C 5.734375 29.390625 5.964844 29.457031 6.207031 29.515625 C 6.449219 29.578125 6.707031 29.628906 6.980469 29.671875 C 7.25 29.71875 7.542969 29.757812 7.851562 29.789062 C 8.164062 29.824219 8.496094 29.851562 8.851562 29.875 C 9.207031 29.898438 9.585938 29.917969 9.996094 29.929688 C 10.628906 29.953125 11.582031 29.96875 12.6875 29.972656 L 16.257812 29.964844 L 19.636719 29.917969 L 20.921875 29.882812 L 21.761719 29.839844 C 21.941406 29.824219 22.117188 29.808594 22.285156 29.785156 C 22.453125 29.765625 22.621094 29.742188 22.785156 29.714844 C 22.949219 29.691406 23.109375 29.660156 23.265625 29.628906 C 23.417969 29.597656 23.574219 29.558594 23.726562 29.519531 C 23.878906 29.480469 24.027344 29.4375 24.175781 29.390625 C 24.324219 29.34375 24.46875 29.296875 24.613281 29.242188 C 24.761719 29.1875 24.90625 29.128906 25.046875 29.066406 C 25.191406 29.007812 25.335938 28.941406 25.480469 28.871094 C 25.703125 28.765625 25.882812 28.675781 26.039062 28.585938 C 26.1875 28.507812 26.332031 28.414062 26.464844 28.316406 C 26.601562 28.21875 26.734375 28.105469 26.886719 27.964844 C 27.042969 27.820312 27.214844 27.652344 27.433594 27.433594 C 27.621094 27.246094 27.78125 27.082031 27.917969 26.929688 C 28.058594 26.78125 28.171875 26.644531 28.273438 26.515625 C 28.371094 26.394531 28.460938 26.265625 28.546875 26.132812 C 28.628906 26.003906 28.703125 25.867188 28.777344 25.71875 C 28.894531 25.492188 28.996094 25.285156 29.085938 25.082031 C 29.175781 24.890625 29.257812 24.691406 29.332031 24.492188 C 29.402344 24.292969 29.464844 24.09375 29.519531 23.886719 C 29.574219 23.675781 29.621094 23.457031 29.660156 23.210938 C 29.699219 22.96875 29.734375 22.703125 29.765625 22.40625 C 29.792969 22.109375 29.820312 21.78125 29.839844 21.414062 L 29.898438 20.179688 L 29.949219 18.644531 L 29.984375 16.933594 L 30 15.144531 L 29.96875 11.632812 L 29.925781 10.058594 L 29.867188 8.707031 L 29.792969 7.652344 C 29.765625 7.359375 29.738281 7.128906 29.707031 6.972656 C 29.675781 6.800781 29.636719 6.628906 29.59375 6.460938 C 29.554688 6.292969 29.511719 6.128906 29.460938 5.964844 C 29.414062 5.804688 29.363281 5.644531 29.308594 5.488281 C 29.253906 5.332031 29.195312 5.179688 29.136719 5.03125 C 29.074219 4.882812 29.007812 4.738281 28.941406 4.597656 C 28.871094 4.453125 28.800781 4.316406 28.726562 4.179688 C 28.652344 4.042969 28.574219 3.914062 28.492188 3.785156 C 28.410156 3.65625 28.324219 3.527344 28.234375 3.40625 C 28.148438 3.285156 28.054688 3.164062 27.960938 3.050781 C 27.863281 2.933594 27.765625 2.820312 27.664062 2.710938 C 27.5625 2.605469 27.457031 2.496094 27.347656 2.394531 C 27.238281 2.292969 27.125 2.195312 27.011719 2.097656 C 26.894531 2 26.773438 1.910156 26.652344 1.820312 C 26.53125 1.730469 26.402344 1.644531 26.277344 1.5625 C 26.144531 1.480469 26.011719 1.398438 25.878906 1.324219 C 25.742188 1.246094 25.601562 1.175781 25.460938 1.105469 C 25.226562 0.992188 25.007812 0.890625 24.796875 0.800781 C 24.585938 0.710938 24.371094 0.632812 24.15625 0.5625 C 23.9375 0.496094 23.710938 0.4375 23.460938 0.386719 C 23.210938 0.335938 22.9375 0.292969 22.628906 0.257812 C 22.320312 0.21875 21.976562 0.191406 21.582031 0.167969 C 21.1875 0.144531 20.746094 0.125 20.238281 0.109375 L 18.519531 0.0703125 L 16.34375 0.0429688 Z M 15.003906 2.671875 L 19.023438 2.691406 L 20.539062 2.722656 C 20.957031 2.734375 21.273438 2.746094 21.460938 2.765625 C 21.703125 2.785156 21.9375 2.808594 22.15625 2.839844 C 22.371094 2.871094 22.582031 2.90625 22.792969 2.949219 C 22.992188 2.992188 23.1875 3.039062 23.371094 3.09375 C 23.554688 3.148438 23.730469 3.210938 23.898438 3.277344 C 24.066406 3.34375 24.230469 3.417969 24.386719 3.5 C 24.539062 3.578125 24.6875 3.667969 24.835938 3.761719 C 24.976562 3.859375 25.117188 3.960938 25.253906 4.074219 C 25.386719 4.183594 25.519531 4.304688 25.644531 4.429688 C 25.78125 4.566406 25.90625 4.703125 26.019531 4.84375 C 26.132812 4.984375 26.238281 5.128906 26.335938 5.28125 C 26.433594 5.4375 26.523438 5.597656 26.597656 5.765625 C 26.679688 5.933594 26.75 6.113281 26.816406 6.300781 C 26.878906 6.492188 26.9375 6.695312 26.988281 6.910156 C 27.039062 7.140625 27.085938 7.371094 27.121094 7.601562 C 27.160156 7.847656 27.191406 8.109375 27.21875 8.390625 C 27.246094 8.671875 27.269531 8.972656 27.289062 9.292969 C 27.304688 9.550781 27.316406 9.886719 27.328125 10.289062 L 27.355469 11.65625 L 27.378906 15 L 27.355469 18.34375 L 27.324219 19.707031 L 27.285156 20.699219 C 27.257812 21.160156 27.226562 21.550781 27.191406 21.890625 C 27.171875 22.0625 27.152344 22.21875 27.132812 22.367188 C 27.113281 22.503906 27.089844 22.644531 27.0625 22.78125 C 27.035156 22.90625 27.007812 23.03125 26.976562 23.15625 C 26.941406 23.273438 26.90625 23.390625 26.867188 23.507812 C 26.828125 23.625 26.785156 23.738281 26.738281 23.851562 C 26.6875 23.972656 26.636719 24.09375 26.582031 24.210938 C 26.535156 24.316406 26.480469 24.417969 26.429688 24.519531 C 26.375 24.617188 26.316406 24.714844 26.257812 24.808594 C 26.199219 24.902344 26.136719 24.992188 26.070312 25.082031 C 26.003906 25.167969 25.9375 25.253906 25.867188 25.339844 C 25.792969 25.421875 25.722656 25.5 25.644531 25.578125 C 25.566406 25.65625 25.488281 25.730469 25.40625 25.800781 C 25.320312 25.875 25.234375 25.945312 25.148438 26.011719 C 25.058594 26.078125 24.96875 26.140625 24.871094 26.203125 C 24.777344 26.265625 24.679688 26.324219 24.578125 26.378906 C 24.476562 26.433594 24.375 26.488281 24.265625 26.539062 C 24.15625 26.589844 24.046875 26.640625 23.933594 26.683594 C 23.820312 26.730469 23.703125 26.773438 23.582031 26.816406 C 23.34375 26.898438 23.089844 26.96875 22.824219 27.03125 C 22.546875 27.09375 22.265625 27.148438 21.980469 27.1875 C 21.875 27.203125 21.625 27.21875 21.265625 27.234375 L 19.902344 27.269531 L 16.042969 27.320312 L 12 27.328125 L 10.410156 27.3125 L 9.378906 27.277344 L 8.621094 27.226562 C 8.382812 27.207031 8.164062 27.183594 7.957031 27.15625 C 7.753906 27.132812 7.5625 27.105469 7.382812 27.074219 C 7.210938 27.042969 7.039062 27.007812 6.871094 26.96875 C 6.71875 26.929688 6.566406 26.886719 6.417969 26.835938 C 6.273438 26.789062 6.132812 26.734375 6 26.679688 C 5.863281 26.621094 5.734375 26.554688 5.605469 26.488281 C 5.476562 26.417969 5.347656 26.339844 5.21875 26.257812 C 5.121094 26.195312 5.023438 26.132812 4.933594 26.066406 C 4.84375 26 4.753906 25.933594 4.671875 25.863281 C 4.585938 25.796875 4.503906 25.722656 4.425781 25.648438 C 4.347656 25.578125 4.273438 25.5 4.203125 25.421875 C 4.128906 25.34375 4.058594 25.261719 3.996094 25.179688 C 3.929688 25.09375 3.863281 25.007812 3.804688 24.917969 C 3.742188 24.828125 3.6875 24.734375 3.632812 24.640625 C 3.578125 24.546875 3.523438 24.449219 3.476562 24.347656 C 3.425781 24.242188 3.378906 24.136719 3.335938 24.03125 C 3.289062 23.921875 3.25 23.8125 3.210938 23.695312 C 3.128906 23.464844 3.0625 23.21875 3 22.957031 C 2.941406 22.695312 2.890625 22.414062 2.847656 22.117188 C 2.804688 21.820312 2.769531 21.507812 2.738281 21.171875 C 2.71875 20.925781 2.703125 20.542969 2.691406 20.058594 L 2.664062 18.335938 L 2.675781 13.941406 L 2.75 9.746094 L 2.808594 8.269531 L 2.839844 7.777344 C 2.851562 7.648438 2.863281 7.550781 2.875 7.492188 C 2.914062 7.300781 2.953125 7.125 2.996094 6.957031 C 3.035156 6.800781 3.078125 6.644531 3.125 6.492188 C 3.167969 6.34375 3.214844 6.207031 3.265625 6.078125 C 3.316406 5.953125 3.371094 5.832031 3.429688 5.710938 C 3.488281 5.59375 3.550781 5.480469 3.617188 5.371094 C 3.6875 5.261719 3.757812 5.15625 3.839844 5.050781 C 3.917969 4.945312 4.003906 4.839844 4.097656 4.734375 C 4.191406 4.628906 4.292969 4.523438 4.402344 4.414062 C 4.53125 4.285156 4.664062 4.160156 4.804688 4.042969 C 4.933594 3.933594 5.070312 3.828125 5.210938 3.730469 C 5.347656 3.636719 5.492188 3.550781 5.640625 3.472656 C 5.789062 3.394531 5.941406 3.320312 6.101562 3.257812 C 6.265625 3.195312 6.433594 3.136719 6.617188 3.085938 C 6.804688 3.03125 6.996094 2.988281 7.191406 2.949219 C 7.390625 2.910156 7.609375 2.875 7.839844 2.84375 C 8.070312 2.8125 8.3125 2.789062 8.574219 2.765625 C 8.757812 2.75 9.074219 2.734375 9.488281 2.722656 L 10.996094 2.695312 L 15.007812 2.667969 Z M 15.003906 2.671875 "/>
</g>
</svg>
